<svg xmlns="http://www.w3.org/2000/svg" width="201.845" height="201.938" viewBox="0 0 201.845 201.938">
  <path id="Path_4395" data-name="Path 4395" d="M587.109,210.512c16.258.241,32.309,2.094,47.769,7.152,24.724,8.088,40.383,25.06,47.235,50.1a167.2,167.2,0,0,1,5.461,34.563c1.136,19.555-.793,38.793-6.813,57.375-7.84,24.2-24.5,39.721-49,46.684a164.385,164.385,0,0,1-35.627,5.756c-19.406,1.121-38.51-.769-56.963-6.7-25.536-8.209-41.277-25.957-47.835-51.9a176.051,176.051,0,0,1-4.964-32.438,156.538,156.538,0,0,1,6.478-56.77c7.839-25.058,24.963-40.949,50.265-47.9a151.777,151.777,0,0,1,34.351-5.416C580.685,210.895,583.9,210.684,587.109,210.512Zm17.648,53.7a5.971,5.971,0,0,1,.807.513l1.393,1.392c7.234,7.225,14.59,14.549,21.867,21.952a4.572,4.572,0,0,1,1.029,2.922c.081,7.981.044,15.964.045,23.946q0,22.738.015,45.475c0,1.77-.126,3.525-2,4.237a10.525,10.525,0,0,1-3.658.442q-32.85.028-65.7.016a19.864,19.864,0,0,0-3.921.349,3.668,3.668,0,0,0-3.089,3.507c-.326,3.025,1.481,4.761,5.052,4.762q34.5.01,69,0c7.743,0,12.991-5.2,12.992-12.9q.008-36.029.034-72.058a7.138,7.138,0,0,0-2.26-5.451q-16.049-15.955-32.01-32c-1.5-1.5-3.134-2.455-5.291-1.686-2.205.786-2.737,2.666-2.892,4.736-.038.51-.035,1.024-.035,1.537q0,14.609.007,29.218a15.6,15.6,0,0,0,.262,2.831c.453,2.419,1.776,3.555,4.222,3.572q7.69.052,15.381.008c2.7-.013,4.6-1.842,4.547-4.268-.053-2.372-1.871-4.025-4.519-4.047-3.149-.026-6.3-.04-9.448.008-1.294.02-1.855-.437-1.846-1.784C604.781,275.811,604.757,270.176,604.757,264.213Zm-69.42,50.729q0,11.424,0,22.847c0,10.4-.012,20.8.016,31.2.008,2.807,1.665,4.632,4.131,4.731s4.235-1.595,4.517-4.388c.051-.508.03-1.024.03-1.536q0-52.286.006-104.572c0-4.332.894-5.212,5.311-5.212q15.272,0,30.543-.014a16.314,16.314,0,0,0,3.7-.351,3.812,3.812,0,0,0,3.122-3.964c.056-2.608-1.746-4.284-4.7-4.29-11.133-.019-22.273.226-33.4-.1a12.925,12.925,0,0,0-13.332,13.362C535.476,280.083,535.342,297.513,535.337,314.942Zm50.646.776q14.828,0,29.657,0c3,0,4.874-1.585,4.914-4.1.039-2.5-1.893-4.221-4.8-4.222q-29.767-.01-59.534,0c-3.041,0-4.775,1.563-4.746,4.209.029,2.61,1.782,4.112,4.853,4.114Q571.154,315.727,585.983,315.718Zm-.117,24.171q14.937,0,29.874,0c2.947,0,4.851-1.676,4.81-4.189-.04-2.445-1.911-4.126-4.678-4.127q-29.874-.015-59.748,0a6.045,6.045,0,0,0-2.138.317,4.02,4.02,0,0,0-2.41,4.651,3.849,3.849,0,0,0,4.2,3.337Q570.819,339.914,585.865,339.889Zm-16.834-48.346c4.315,0,8.63.015,12.945-.005,2.984-.013,4.756-1.615,4.745-4.225-.011-2.568-1.685-4.085-4.612-4.09q-13.054-.025-26.109,0c-2.87,0-4.548,1.588-4.519,4.184.029,2.567,1.733,4.118,4.605,4.13C560.4,291.555,564.717,291.542,569.031,291.543Z" transform="translate(-486.038 -210.512)" fill="#fba700"/>
</svg>
